<svg id="visual" viewBox="0 0 960 540" width="960" height="540" xmlns="http://www.w3.org/2000/svg" xmlns:xlink="http://www.w3.org/1999/xlink" version="1.1"><rect x="0" y="0" width="960" height="540" fill="#fff"></rect><defs><linearGradient id="grad1_0" x1="43.8%" y1="0%" x2="100%" y2="100%"><stop offset="14.444444444444446%" stop-color="#ffffff" stop-opacity="1"></stop><stop offset="85.55555555555554%" stop-color="#ffffff" stop-opacity="1"></stop></linearGradient></defs><defs><linearGradient id="grad2_0" x1="0%" y1="0%" x2="56.3%" y2="100%"><stop offset="14.444444444444446%" stop-color="#ffffff" stop-opacity="1"></stop><stop offset="85.55555555555554%" stop-color="#ffffff" stop-opacity="1"></stop></linearGradient></defs><g transform="translate(960, 0)"><path d="M0 297C-39.1 292.9 -78.1 288.8 -113.7 274.4C-149.2 260 -181.2 235.3 -206.5 206.5C-231.7 177.6 -250.3 144.6 -264.2 109.4C-278.2 74.3 -287.6 37.2 -297 0L0 0Z" fill="#2464b4"></path></g><g transform="translate(0, 540)"><path d="M0 -297C40.3 -293.7 80.7 -290.3 113.3 -273.5C145.9 -256.6 170.8 -226.3 198.7 -198.7C226.6 -171.1 257.5 -146.3 274.4 -113.7C291.3 -81 294.1 -40.5 297 0L0 0Z" fill="#2464b4"></path></g></svg>