<svg id="visual" viewBox="0 0 540 960" width="540" height="960" xmlns="http://www.w3.org/2000/svg" xmlns:xlink="http://www.w3.org/1999/xlink" version="1.1"><rect x="0" y="0" width="540" height="960" fill="#fff"></rect><defs><linearGradient id="grad1_0" x1="0%" y1="0%" x2="100%" y2="100%"><stop offset="30%" stop-color="#ffffff" stop-opacity="1"></stop><stop offset="70%" stop-color="#ffffff" stop-opacity="1"></stop></linearGradient></defs><defs><linearGradient id="grad2_0" x1="0%" y1="0%" x2="100%" y2="100%"><stop offset="30%" stop-color="#ffffff" stop-opacity="1"></stop><stop offset="70%" stop-color="#ffffff" stop-opacity="1"></stop></linearGradient></defs><g transform="translate(540, 0)"><path d="M0 297C-35.2 284.4 -70.4 271.9 -107.5 259.6C-144.7 247.4 -183.9 235.5 -210 210C-236.1 184.6 -249.1 145.6 -261.5 108.3C-273.8 71 -285.4 35.5 -297 0L0 0Z" fill="#2464b4"></path></g><g transform="translate(0, 960)"><path d="M0 -297C39.2 -293.7 78.4 -290.3 113.7 -274.4C148.9 -258.5 180.1 -229.9 198 -198C215.9 -166.1 220.4 -130.8 234.7 -97.2C248.9 -63.6 273 -31.8 297 0L0 0Z" fill="#2464b4"></path></g></svg>