<svg id="visual" viewBox="0 0 540 960" width="540" height="960" xmlns="http://www.w3.org/2000/svg" xmlns:xlink="http://www.w3.org/1999/xlink" version="1.1"><rect x="0" y="0" width="540" height="960" fill="#FFFFFF"></rect><path d="M0 804L12.8 801.8C25.7 799.7 51.3 795.3 77 783.3C102.7 771.3 128.3 751.7 154 753.2C179.7 754.7 205.3 777.3 231.2 786.5C257 795.7 283 791.3 308.8 788.7C334.7 786 360.3 785 386 775.5C411.7 766 437.3 748 463 738.5C488.7 729 514.3 728 527.2 727.5L540 727L540 961L527.2 961C514.3 961 488.7 961 463 961C437.3 961 411.7 961 386 961C360.3 961 334.7 961 308.8 961C283 961 257 961 231.2 961C205.3 961 179.7 961 154 961C128.3 961 102.7 961 77 961C51.3 961 25.7 961 12.8 961L0 961Z" fill="#6600ff"></path><path d="M0 812L12.8 807.2C25.7 802.3 51.3 792.7 77 789C102.7 785.3 128.3 787.7 154 790C179.7 792.3 205.3 794.7 231.2 795.8C257 797 283 797 308.8 797.8C334.7 798.7 360.3 800.3 386 799.3C411.7 798.3 437.3 794.7 463 797C488.7 799.3 514.3 807.7 527.2 811.8L540 816L540 961L527.2 961C514.3 961 488.7 961 463 961C437.3 961 411.7 961 386 961C360.3 961 334.7 961 308.8 961C283 961 257 961 231.2 961C205.3 961 179.7 961 154 961C128.3 961 102.7 961 77 961C51.3 961 25.7 961 12.8 961L0 961Z" fill="#2b2ccf"></path><path d="M0 819L12.8 818C25.7 817 51.3 815 77 822.3C102.7 829.7 128.3 846.3 154 851.8C179.7 857.3 205.3 851.7 231.2 850.3C257 849 283 852 308.8 853.5C334.7 855 360.3 855 386 858C411.7 861 437.3 867 463 860.8C488.7 854.7 514.3 836.3 527.2 827.2L540 818L540 961L527.2 961C514.3 961 488.7 961 463 961C437.3 961 411.7 961 386 961C360.3 961 334.7 961 308.8 961C283 961 257 961 231.2 961C205.3 961 179.7 961 154 961C128.3 961 102.7 961 77 961C51.3 961 25.7 961 12.8 961L0 961Z" fill="#002f99"></path><path d="M0 846L12.8 851.2C25.7 856.3 51.3 866.7 77 872.3C102.7 878 128.3 879 154 873.8C179.7 868.7 205.3 857.3 231.2 855.2C257 853 283 860 308.8 868.3C334.7 876.7 360.3 886.3 386 882.8C411.7 879.3 437.3 862.7 463 859C488.7 855.3 514.3 864.7 527.2 869.3L540 874L540 961L527.2 961C514.3 961 488.7 961 463 961C437.3 961 411.7 961 386 961C360.3 961 334.7 961 308.8 961C283 961 257 961 231.2 961C205.3 961 179.7 961 154 961C128.3 961 102.7 961 77 961C51.3 961 25.7 961 12.8 961L0 961Z" fill="#00255e"></path><path d="M0 920L12.8 918C25.7 916 51.3 912 77 908.5C102.7 905 128.3 902 154 905.8C179.7 909.7 205.3 920.3 231.2 922.3C257 924.3 283 917.7 308.8 916.7C334.7 915.7 360.3 920.3 386 919C411.7 917.7 437.3 910.3 463 909.7C488.7 909 514.3 915 527.2 918L540 921L540 961L527.2 961C514.3 961 488.7 961 463 961C437.3 961 411.7 961 386 961C360.3 961 334.7 961 308.8 961C283 961 257 961 231.2 961C205.3 961 179.7 961 154 961C128.3 961 102.7 961 77 961C51.3 961 25.7 961 12.8 961L0 961Z" fill="#001122"></path></svg>